<mxfile host="www.draw.io" modified="2020-01-31T16:22:09.101Z" agent="Mozilla/5.0 (Windows NT 10.0; Win64; x64) AppleWebKit/537.36 (KHTML, like Gecko) Chrome/79.0.3945.130 Safari/537.36" etag="z_xkdIwavIGz9sDDBkiV" version="12.6.2" type="github">
  <diagram id="OF4UJr2BFKB1ryTt_pZF" name="Page-1">
    <mxGraphModel dx="1422" dy="762" grid="1" gridSize="10" guides="1" tooltips="1" connect="1" arrows="1" fold="1" page="1" pageScale="1" pageWidth="827" pageHeight="1169" math="0" shadow="0">
      <root>
        <mxCell id="0"/>
        <mxCell id="1" parent="0"/>
        <mxCell id="ZGdE2x68xGbfFGC_v7V8-2" value="«interface»&lt;br&gt;&lt;b&gt;AdminDAO&lt;/b&gt;" style="html=1;" parent="1" vertex="1">
          <mxGeometry x="30" y="190" width="110" height="50" as="geometry"/>
        </mxCell>
        <mxCell id="ZGdE2x68xGbfFGC_v7V8-4" value="«interface»&lt;br&gt;&lt;b&gt;BoardDAO&lt;/b&gt;" style="html=1;" parent="1" vertex="1">
          <mxGeometry x="30" y="250" width="110" height="50" as="geometry"/>
        </mxCell>
        <mxCell id="ZGdE2x68xGbfFGC_v7V8-5" value="«interface»&lt;br&gt;&lt;b&gt;CartDAO&lt;/b&gt;" style="html=1;" parent="1" vertex="1">
          <mxGeometry x="30" y="310" width="110" height="50" as="geometry"/>
        </mxCell>
        <mxCell id="ZGdE2x68xGbfFGC_v7V8-6" value="«interface»&lt;br&gt;&lt;b&gt;MemberDAO&lt;/b&gt;" style="html=1;" parent="1" vertex="1">
          <mxGeometry x="30" y="370" width="110" height="50" as="geometry"/>
        </mxCell>
        <mxCell id="ZGdE2x68xGbfFGC_v7V8-7" value="«interface»&lt;br&gt;&lt;b&gt;ProductDAO&lt;/b&gt;" style="html=1;" parent="1" vertex="1">
          <mxGeometry x="30" y="430" width="110" height="50" as="geometry"/>
        </mxCell>
        <mxCell id="ZGdE2x68xGbfFGC_v7V8-8" value="«interface»&lt;br&gt;&lt;b&gt;ReplyDAO&lt;/b&gt;" style="html=1;" parent="1" vertex="1">
          <mxGeometry x="30" y="490" width="110" height="50" as="geometry"/>
        </mxCell>
        <mxCell id="ZGdE2x68xGbfFGC_v7V8-9" value="«interface»&lt;br&gt;&lt;b&gt;AdminService&lt;/b&gt;" style="html=1;" parent="1" vertex="1">
          <mxGeometry x="150" y="190" width="110" height="50" as="geometry"/>
        </mxCell>
        <mxCell id="ZGdE2x68xGbfFGC_v7V8-10" value="«interface»&lt;br&gt;&lt;b&gt;Board&lt;/b&gt;&lt;b&gt;Service&lt;/b&gt;" style="html=1;" parent="1" vertex="1">
          <mxGeometry x="150" y="250" width="110" height="50" as="geometry"/>
        </mxCell>
        <mxCell id="ZGdE2x68xGbfFGC_v7V8-11" value="«interface»&lt;br&gt;&lt;b&gt;Cart&lt;/b&gt;&lt;b&gt;Service&lt;/b&gt;" style="html=1;" parent="1" vertex="1">
          <mxGeometry x="150" y="310" width="110" height="50" as="geometry"/>
        </mxCell>
        <mxCell id="ZGdE2x68xGbfFGC_v7V8-12" value="«interface»&lt;br&gt;&lt;b&gt;Member&lt;/b&gt;&lt;b&gt;Service&lt;/b&gt;" style="html=1;" parent="1" vertex="1">
          <mxGeometry x="150" y="370" width="110" height="50" as="geometry"/>
        </mxCell>
        <mxCell id="ZGdE2x68xGbfFGC_v7V8-13" value="«interface»&lt;br&gt;&lt;b&gt;Product&lt;/b&gt;&lt;b&gt;Service&lt;/b&gt;" style="html=1;" parent="1" vertex="1">
          <mxGeometry x="150" y="430" width="110" height="50" as="geometry"/>
        </mxCell>
        <mxCell id="ZGdE2x68xGbfFGC_v7V8-14" value="«interface»&lt;br&gt;&lt;b&gt;Reply&lt;/b&gt;&lt;b&gt;Service&lt;/b&gt;" style="html=1;" parent="1" vertex="1">
          <mxGeometry x="150" y="490" width="110" height="50" as="geometry"/>
        </mxCell>
        <mxCell id="ZGdE2x68xGbfFGC_v7V8-17" value="DAO" style="shape=folder;fontStyle=1;spacingTop=10;tabWidth=40;tabHeight=14;tabPosition=left;html=1;" parent="1" vertex="1">
          <mxGeometry x="30" y="130" width="70" height="50" as="geometry"/>
        </mxCell>
        <mxCell id="ZGdE2x68xGbfFGC_v7V8-18" value="Service" style="shape=folder;fontStyle=1;spacingTop=10;tabWidth=40;tabHeight=14;tabPosition=left;html=1;" parent="1" vertex="1">
          <mxGeometry x="150" y="130" width="70" height="50" as="geometry"/>
        </mxCell>
        <mxCell id="ZGdE2x68xGbfFGC_v7V8-20" value="AdminController" style="swimlane;fontStyle=1;align=center;verticalAlign=top;childLayout=stackLayout;horizontal=1;startSize=26;horizontalStack=0;resizeParent=1;resizeParentMax=0;resizeLast=0;collapsible=1;marginBottom=0;" parent="1" vertex="1">
          <mxGeometry x="110" y="20" width="160" height="34" as="geometry">
            <mxRectangle x="110" y="20" width="130" height="26" as="alternateBounds"/>
          </mxGeometry>
        </mxCell>
        <mxCell id="ZGdE2x68xGbfFGC_v7V8-22" value="" style="line;strokeWidth=1;fillColor=none;align=left;verticalAlign=middle;spacingTop=-1;spacingLeft=3;spacingRight=3;rotatable=0;labelPosition=right;points=[];portConstraint=eastwest;" parent="ZGdE2x68xGbfFGC_v7V8-20" vertex="1">
          <mxGeometry y="26" width="160" height="8" as="geometry"/>
        </mxCell>
        <mxCell id="ZGdE2x68xGbfFGC_v7V8-24" value="CartController" style="swimlane;fontStyle=1;align=center;verticalAlign=top;childLayout=stackLayout;horizontal=1;startSize=26;horizontalStack=0;resizeParent=1;resizeParentMax=0;resizeLast=0;collapsible=1;marginBottom=0;" parent="1" vertex="1">
          <mxGeometry x="280" y="20" width="160" height="34" as="geometry">
            <mxRectangle x="110" y="20" width="130" height="26" as="alternateBounds"/>
          </mxGeometry>
        </mxCell>
        <mxCell id="ZGdE2x68xGbfFGC_v7V8-26" value="" style="line;strokeWidth=1;fillColor=none;align=left;verticalAlign=middle;spacingTop=-1;spacingLeft=3;spacingRight=3;rotatable=0;labelPosition=right;points=[];portConstraint=eastwest;" parent="ZGdE2x68xGbfFGC_v7V8-24" vertex="1">
          <mxGeometry y="26" width="160" height="8" as="geometry"/>
        </mxCell>
        <mxCell id="ZGdE2x68xGbfFGC_v7V8-28" value="MemberController" style="swimlane;fontStyle=1;align=center;verticalAlign=top;childLayout=stackLayout;horizontal=1;startSize=26;horizontalStack=0;resizeParent=1;resizeParentMax=0;resizeLast=0;collapsible=1;marginBottom=0;" parent="1" vertex="1">
          <mxGeometry x="450" y="20" width="160" height="34" as="geometry">
            <mxRectangle x="110" y="20" width="130" height="26" as="alternateBounds"/>
          </mxGeometry>
        </mxCell>
        <mxCell id="ZGdE2x68xGbfFGC_v7V8-30" value="" style="line;strokeWidth=1;fillColor=none;align=left;verticalAlign=middle;spacingTop=-1;spacingLeft=3;spacingRight=3;rotatable=0;labelPosition=right;points=[];portConstraint=eastwest;" parent="ZGdE2x68xGbfFGC_v7V8-28" vertex="1">
          <mxGeometry y="26" width="160" height="8" as="geometry"/>
        </mxCell>
        <mxCell id="ZGdE2x68xGbfFGC_v7V8-32" value="Controller" style="shape=folder;fontStyle=1;spacingTop=10;tabWidth=40;tabHeight=14;tabPosition=left;html=1;" parent="1" vertex="1">
          <mxGeometry x="20" y="20" width="70" height="50" as="geometry"/>
        </mxCell>
        <mxCell id="ZGdE2x68xGbfFGC_v7V8-36" value="ProductController" style="swimlane;fontStyle=1;align=center;verticalAlign=top;childLayout=stackLayout;horizontal=1;startSize=26;horizontalStack=0;resizeParent=1;resizeParentMax=0;resizeLast=0;collapsible=1;marginBottom=0;" parent="1" vertex="1">
          <mxGeometry x="620" y="20" width="160" height="34" as="geometry">
            <mxRectangle x="110" y="20" width="130" height="26" as="alternateBounds"/>
          </mxGeometry>
        </mxCell>
        <mxCell id="ZGdE2x68xGbfFGC_v7V8-38" value="" style="line;strokeWidth=1;fillColor=none;align=left;verticalAlign=middle;spacingTop=-1;spacingLeft=3;spacingRight=3;rotatable=0;labelPosition=right;points=[];portConstraint=eastwest;" parent="ZGdE2x68xGbfFGC_v7V8-36" vertex="1">
          <mxGeometry y="26" width="160" height="8" as="geometry"/>
        </mxCell>
        <mxCell id="ZGdE2x68xGbfFGC_v7V8-40" value="ReplyController" style="swimlane;fontStyle=1;align=center;verticalAlign=top;childLayout=stackLayout;horizontal=1;startSize=26;horizontalStack=0;resizeParent=1;resizeParentMax=0;resizeLast=0;collapsible=1;marginBottom=0;" parent="1" vertex="1">
          <mxGeometry x="450" y="70" width="160" height="34" as="geometry">
            <mxRectangle x="110" y="20" width="130" height="26" as="alternateBounds"/>
          </mxGeometry>
        </mxCell>
        <mxCell id="ZGdE2x68xGbfFGC_v7V8-42" value="" style="line;strokeWidth=1;fillColor=none;align=left;verticalAlign=middle;spacingTop=-1;spacingLeft=3;spacingRight=3;rotatable=0;labelPosition=right;points=[];portConstraint=eastwest;" parent="ZGdE2x68xGbfFGC_v7V8-40" vertex="1">
          <mxGeometry y="26" width="160" height="8" as="geometry"/>
        </mxCell>
        <mxCell id="ZGdE2x68xGbfFGC_v7V8-44" value="SearchBoardController" style="swimlane;fontStyle=1;align=center;verticalAlign=top;childLayout=stackLayout;horizontal=1;startSize=26;horizontalStack=0;resizeParent=1;resizeParentMax=0;resizeLast=0;collapsible=1;marginBottom=0;" parent="1" vertex="1">
          <mxGeometry x="620" y="70" width="160" height="34" as="geometry">
            <mxRectangle x="110" y="20" width="130" height="26" as="alternateBounds"/>
          </mxGeometry>
        </mxCell>
        <mxCell id="ZGdE2x68xGbfFGC_v7V8-46" value="" style="line;strokeWidth=1;fillColor=none;align=left;verticalAlign=middle;spacingTop=-1;spacingLeft=3;spacingRight=3;rotatable=0;labelPosition=right;points=[];portConstraint=eastwest;" parent="ZGdE2x68xGbfFGC_v7V8-44" vertex="1">
          <mxGeometry y="26" width="160" height="8" as="geometry"/>
        </mxCell>
        <mxCell id="ZGdE2x68xGbfFGC_v7V8-48" value="FileUpload" style="shape=folder;fontStyle=1;spacingTop=10;tabWidth=40;tabHeight=14;tabPosition=left;html=1;" parent="1" vertex="1">
          <mxGeometry x="480" y="318" width="70" height="50" as="geometry"/>
        </mxCell>
        <mxCell id="ZGdE2x68xGbfFGC_v7V8-49" value="NaverLogin" style="shape=folder;fontStyle=1;spacingTop=10;tabWidth=40;tabHeight=14;tabPosition=left;html=1;" parent="1" vertex="1">
          <mxGeometry x="650" y="130" width="70" height="50" as="geometry"/>
        </mxCell>
        <mxCell id="ZGdE2x68xGbfFGC_v7V8-50" value="Interceptor" style="shape=folder;fontStyle=1;spacingTop=10;tabWidth=40;tabHeight=14;tabPosition=left;html=1;" parent="1" vertex="1">
          <mxGeometry x="480" y="130" width="70" height="50" as="geometry"/>
        </mxCell>
        <mxCell id="ZGdE2x68xGbfFGC_v7V8-52" value="CommonException" style="swimlane;fontStyle=1;align=center;verticalAlign=top;childLayout=stackLayout;horizontal=1;startSize=26;horizontalStack=0;resizeParent=1;resizeParentMax=0;resizeLast=0;collapsible=1;marginBottom=0;" parent="1" vertex="1">
          <mxGeometry x="280" y="70" width="160" height="34" as="geometry">
            <mxRectangle x="110" y="20" width="130" height="26" as="alternateBounds"/>
          </mxGeometry>
        </mxCell>
        <mxCell id="ZGdE2x68xGbfFGC_v7V8-54" value="" style="line;strokeWidth=1;fillColor=none;align=left;verticalAlign=middle;spacingTop=-1;spacingLeft=3;spacingRight=3;rotatable=0;labelPosition=right;points=[];portConstraint=eastwest;" parent="ZGdE2x68xGbfFGC_v7V8-52" vertex="1">
          <mxGeometry y="26" width="160" height="8" as="geometry"/>
        </mxCell>
        <mxCell id="ZGdE2x68xGbfFGC_v7V8-57" value="VO" style="shape=folder;fontStyle=1;spacingTop=10;tabWidth=40;tabHeight=14;tabPosition=left;html=1;" parent="1" vertex="1">
          <mxGeometry x="650" y="318" width="70" height="50" as="geometry"/>
        </mxCell>
        <mxCell id="ZGdE2x68xGbfFGC_v7V8-58" value="DTO" style="shape=folder;fontStyle=1;spacingTop=10;tabWidth=40;tabHeight=14;tabPosition=left;html=1;" parent="1" vertex="1">
          <mxGeometry x="300" y="130" width="70" height="50" as="geometry"/>
        </mxCell>
        <mxCell id="DXFXkBRYs5RiqeBWQfTU-1" value="LoginInterceptor" style="swimlane;fontStyle=1;align=center;verticalAlign=top;childLayout=stackLayout;horizontal=1;startSize=26;horizontalStack=0;resizeParent=1;resizeParentMax=0;resizeLast=0;collapsible=1;marginBottom=0;" parent="1" vertex="1">
          <mxGeometry x="480" y="190" width="160" height="86" as="geometry"/>
        </mxCell>
        <mxCell id="DXFXkBRYs5RiqeBWQfTU-3" value="" style="line;strokeWidth=1;fillColor=none;align=left;verticalAlign=middle;spacingTop=-1;spacingLeft=3;spacingRight=3;rotatable=0;labelPosition=right;points=[];portConstraint=eastwest;" parent="DXFXkBRYs5RiqeBWQfTU-1" vertex="1">
          <mxGeometry y="26" width="160" height="8" as="geometry"/>
        </mxCell>
        <mxCell id="DXFXkBRYs5RiqeBWQfTU-4" value="preHandle" style="text;strokeColor=none;fillColor=none;align=left;verticalAlign=top;spacingLeft=4;spacingRight=4;overflow=hidden;rotatable=0;points=[[0,0.5],[1,0.5]];portConstraint=eastwest;" parent="DXFXkBRYs5RiqeBWQfTU-1" vertex="1">
          <mxGeometry y="34" width="160" height="26" as="geometry"/>
        </mxCell>
        <mxCell id="DXFXkBRYs5RiqeBWQfTU-23" value="postHandle&#xa;" style="text;strokeColor=none;fillColor=none;align=left;verticalAlign=top;spacingLeft=4;spacingRight=4;overflow=hidden;rotatable=0;points=[[0,0.5],[1,0.5]];portConstraint=eastwest;" parent="DXFXkBRYs5RiqeBWQfTU-1" vertex="1">
          <mxGeometry y="60" width="160" height="26" as="geometry"/>
        </mxCell>
        <mxCell id="DXFXkBRYs5RiqeBWQfTU-5" value="MediaUtils" style="swimlane;fontStyle=1;align=center;verticalAlign=top;childLayout=stackLayout;horizontal=1;startSize=26;horizontalStack=0;resizeParent=1;resizeParentMax=0;resizeLast=0;collapsible=1;marginBottom=0;" parent="1" vertex="1">
          <mxGeometry x="480" y="378" width="160" height="34" as="geometry"/>
        </mxCell>
        <mxCell id="DXFXkBRYs5RiqeBWQfTU-7" value="" style="line;strokeWidth=1;fillColor=none;align=left;verticalAlign=middle;spacingTop=-1;spacingLeft=3;spacingRight=3;rotatable=0;labelPosition=right;points=[];portConstraint=eastwest;" parent="DXFXkBRYs5RiqeBWQfTU-5" vertex="1">
          <mxGeometry y="26" width="160" height="8" as="geometry"/>
        </mxCell>
        <mxCell id="DXFXkBRYs5RiqeBWQfTU-9" value="FileUpload" style="swimlane;fontStyle=1;align=center;verticalAlign=top;childLayout=stackLayout;horizontal=1;startSize=26;horizontalStack=0;resizeParent=1;resizeParentMax=0;resizeLast=0;collapsible=1;marginBottom=0;" parent="1" vertex="1">
          <mxGeometry x="480" y="418" width="160" height="156" as="geometry"/>
        </mxCell>
        <mxCell id="DXFXkBRYs5RiqeBWQfTU-16" value="makeIcon&#xa;" style="text;strokeColor=none;fillColor=none;align=left;verticalAlign=top;spacingLeft=4;spacingRight=4;overflow=hidden;rotatable=0;points=[[0,0.5],[1,0.5]];portConstraint=eastwest;" parent="DXFXkBRYs5RiqeBWQfTU-9" vertex="1">
          <mxGeometry y="26" width="160" height="26" as="geometry"/>
        </mxCell>
        <mxCell id="DXFXkBRYs5RiqeBWQfTU-12" value="uploadFile" style="text;strokeColor=none;fillColor=none;align=left;verticalAlign=top;spacingLeft=4;spacingRight=4;overflow=hidden;rotatable=0;points=[[0,0.5],[1,0.5]];portConstraint=eastwest;" parent="DXFXkBRYs5RiqeBWQfTU-9" vertex="1">
          <mxGeometry y="52" width="160" height="26" as="geometry"/>
        </mxCell>
        <mxCell id="DXFXkBRYs5RiqeBWQfTU-13" value="calcPath" style="text;strokeColor=none;fillColor=none;align=left;verticalAlign=top;spacingLeft=4;spacingRight=4;overflow=hidden;rotatable=0;points=[[0,0.5],[1,0.5]];portConstraint=eastwest;" parent="DXFXkBRYs5RiqeBWQfTU-9" vertex="1">
          <mxGeometry y="78" width="160" height="26" as="geometry"/>
        </mxCell>
        <mxCell id="DXFXkBRYs5RiqeBWQfTU-14" value="makeDir" style="text;strokeColor=none;fillColor=none;align=left;verticalAlign=top;spacingLeft=4;spacingRight=4;overflow=hidden;rotatable=0;points=[[0,0.5],[1,0.5]];portConstraint=eastwest;" parent="DXFXkBRYs5RiqeBWQfTU-9" vertex="1">
          <mxGeometry y="104" width="160" height="26" as="geometry"/>
        </mxCell>
        <mxCell id="DXFXkBRYs5RiqeBWQfTU-15" value="makeThumbnail&#xa;" style="text;strokeColor=none;fillColor=none;align=left;verticalAlign=top;spacingLeft=4;spacingRight=4;overflow=hidden;rotatable=0;points=[[0,0.5],[1,0.5]];portConstraint=eastwest;" parent="DXFXkBRYs5RiqeBWQfTU-9" vertex="1">
          <mxGeometry y="130" width="160" height="26" as="geometry"/>
        </mxCell>
        <mxCell id="DXFXkBRYs5RiqeBWQfTU-19" value="NaverLoginAPI" style="swimlane;fontStyle=0;childLayout=stackLayout;horizontal=1;startSize=26;fillColor=none;horizontalStack=0;resizeParent=1;resizeParentMax=0;resizeLast=0;collapsible=1;marginBottom=0;" parent="1" vertex="1">
          <mxGeometry x="650" y="190" width="140" height="52" as="geometry">
            <mxRectangle x="665" y="310" width="110" height="26" as="alternateBounds"/>
          </mxGeometry>
        </mxCell>
        <mxCell id="DXFXkBRYs5RiqeBWQfTU-24" value="NaverLoginBO" style="swimlane;fontStyle=0;childLayout=stackLayout;horizontal=1;startSize=26;fillColor=none;horizontalStack=0;resizeParent=1;resizeParentMax=0;resizeLast=0;collapsible=1;marginBottom=0;" parent="1" vertex="1">
          <mxGeometry x="650" y="250" width="140" height="52" as="geometry"/>
        </mxCell>
        <mxCell id="DXFXkBRYs5RiqeBWQfTU-28" value="MemberVO" style="swimlane;fontStyle=1;align=center;verticalAlign=top;childLayout=stackLayout;horizontal=1;startSize=26;horizontalStack=0;resizeParent=1;resizeParentMax=0;resizeLast=0;collapsible=1;marginBottom=0;" parent="1" vertex="1">
          <mxGeometry x="650" y="378" width="160" height="34" as="geometry"/>
        </mxCell>
        <mxCell id="DXFXkBRYs5RiqeBWQfTU-30" value="" style="line;strokeWidth=1;fillColor=none;align=left;verticalAlign=middle;spacingTop=-1;spacingLeft=3;spacingRight=3;rotatable=0;labelPosition=right;points=[];portConstraint=eastwest;" parent="DXFXkBRYs5RiqeBWQfTU-28" vertex="1">
          <mxGeometry y="26" width="160" height="8" as="geometry"/>
        </mxCell>
        <mxCell id="DXFXkBRYs5RiqeBWQfTU-32" value="ProductVO" style="swimlane;fontStyle=1;align=center;verticalAlign=top;childLayout=stackLayout;horizontal=1;startSize=26;horizontalStack=0;resizeParent=1;resizeParentMax=0;resizeLast=0;collapsible=1;marginBottom=0;" parent="1" vertex="1">
          <mxGeometry x="650" y="428" width="160" height="34" as="geometry"/>
        </mxCell>
        <mxCell id="DXFXkBRYs5RiqeBWQfTU-34" value="" style="line;strokeWidth=1;fillColor=none;align=left;verticalAlign=middle;spacingTop=-1;spacingLeft=3;spacingRight=3;rotatable=0;labelPosition=right;points=[];portConstraint=eastwest;" parent="DXFXkBRYs5RiqeBWQfTU-32" vertex="1">
          <mxGeometry y="26" width="160" height="8" as="geometry"/>
        </mxCell>
        <mxCell id="DXFXkBRYs5RiqeBWQfTU-36" value="AdminDTO" style="swimlane;fontStyle=0;childLayout=stackLayout;horizontal=1;startSize=26;fillColor=none;horizontalStack=0;resizeParent=1;resizeParentMax=0;resizeLast=0;collapsible=1;marginBottom=0;" parent="1" vertex="1">
          <mxGeometry x="300" y="190" width="140" height="30" as="geometry"/>
        </mxCell>
        <mxCell id="OiDeRyfbak5E41qK3tfj-1" value="BoardVO" style="swimlane;fontStyle=0;childLayout=stackLayout;horizontal=1;startSize=26;fillColor=none;horizontalStack=0;resizeParent=1;resizeParentMax=0;resizeLast=0;collapsible=1;marginBottom=0;" vertex="1" parent="1">
          <mxGeometry x="300" y="228" width="140" height="32" as="geometry"/>
        </mxCell>
        <mxCell id="OiDeRyfbak5E41qK3tfj-2" value="CartDTO" style="swimlane;fontStyle=0;childLayout=stackLayout;horizontal=1;startSize=26;fillColor=none;horizontalStack=0;resizeParent=1;resizeParentMax=0;resizeLast=0;collapsible=1;marginBottom=0;" vertex="1" parent="1">
          <mxGeometry x="300" y="267" width="140" height="33" as="geometry"/>
        </mxCell>
        <mxCell id="OiDeRyfbak5E41qK3tfj-3" value="MemberDTO" style="swimlane;fontStyle=0;childLayout=stackLayout;horizontal=1;startSize=26;fillColor=none;horizontalStack=0;resizeParent=1;resizeParentMax=0;resizeLast=0;collapsible=1;marginBottom=0;" vertex="1" parent="1">
          <mxGeometry x="300" y="310" width="140" height="30" as="geometry"/>
        </mxCell>
        <mxCell id="OiDeRyfbak5E41qK3tfj-4" value="OrderDTO" style="swimlane;fontStyle=0;childLayout=stackLayout;horizontal=1;startSize=26;fillColor=none;horizontalStack=0;resizeParent=1;resizeParentMax=0;resizeLast=0;collapsible=1;marginBottom=0;" vertex="1" parent="1">
          <mxGeometry x="300" y="350" width="140" height="30" as="geometry"/>
        </mxCell>
        <mxCell id="OiDeRyfbak5E41qK3tfj-6" value="ProductDTO" style="swimlane;fontStyle=0;childLayout=stackLayout;horizontal=1;startSize=26;fillColor=none;horizontalStack=0;resizeParent=1;resizeParentMax=0;resizeLast=0;collapsible=1;marginBottom=0;" vertex="1" parent="1">
          <mxGeometry x="300" y="390" width="140" height="30" as="geometry"/>
        </mxCell>
        <mxCell id="OiDeRyfbak5E41qK3tfj-8" value="ReplyVO" style="swimlane;fontStyle=0;childLayout=stackLayout;horizontal=1;startSize=26;fillColor=none;horizontalStack=0;resizeParent=1;resizeParentMax=0;resizeLast=0;collapsible=1;marginBottom=0;" vertex="1" parent="1">
          <mxGeometry x="300" y="429" width="140" height="31" as="geometry"/>
        </mxCell>
        <mxCell id="OiDeRyfbak5E41qK3tfj-9" value="SearchCriteria" style="swimlane;fontStyle=0;childLayout=stackLayout;horizontal=1;startSize=26;fillColor=none;horizontalStack=0;resizeParent=1;resizeParentMax=0;resizeLast=0;collapsible=1;marginBottom=0;" vertex="1" parent="1">
          <mxGeometry x="300" y="622.75" width="140" height="35.5" as="geometry"/>
        </mxCell>
        <mxCell id="OiDeRyfbak5E41qK3tfj-11" value="Criteria" style="swimlane;fontStyle=0;childLayout=stackLayout;horizontal=1;startSize=26;fillColor=none;horizontalStack=0;resizeParent=1;resizeParentMax=0;resizeLast=0;collapsible=1;marginBottom=0;" vertex="1" parent="1">
          <mxGeometry x="300" y="510.75" width="140" height="37.5" as="geometry"/>
        </mxCell>
        <mxCell id="OiDeRyfbak5E41qK3tfj-12" value="Extends" style="endArrow=block;endSize=16;endFill=0;html=1;exitX=0.5;exitY=0;exitDx=0;exitDy=0;entryX=0.5;entryY=1;entryDx=0;entryDy=0;" edge="1" parent="1" source="OiDeRyfbak5E41qK3tfj-9" target="OiDeRyfbak5E41qK3tfj-11">
          <mxGeometry width="160" relative="1" as="geometry">
            <mxPoint x="110" y="592.75" as="sourcePoint"/>
            <mxPoint x="300" y="532.75" as="targetPoint"/>
            <Array as="points"/>
          </mxGeometry>
        </mxCell>
        <mxCell id="OiDeRyfbak5E41qK3tfj-21" value="" style="endArrow=block;dashed=1;endFill=0;endSize=12;html=1;exitX=0.737;exitY=-0.012;exitDx=0;exitDy=0;entryX=0.453;entryY=1.004;entryDx=0;entryDy=0;entryPerimeter=0;exitPerimeter=0;" edge="1" parent="1" source="OiDeRyfbak5E41qK3tfj-22" target="ZGdE2x68xGbfFGC_v7V8-14">
          <mxGeometry width="160" relative="1" as="geometry">
            <mxPoint x="144.8" y="540" as="sourcePoint"/>
            <mxPoint x="144.8" y="590" as="targetPoint"/>
          </mxGeometry>
        </mxCell>
        <mxCell id="OiDeRyfbak5E41qK3tfj-22" value="Implementation" style="html=1;" vertex="1" parent="1">
          <mxGeometry x="30" y="590" width="230" height="50" as="geometry"/>
        </mxCell>
        <mxCell id="OiDeRyfbak5E41qK3tfj-28" value="PageMaker" style="swimlane;fontStyle=0;childLayout=stackLayout;horizontal=1;startSize=26;fillColor=none;horizontalStack=0;resizeParent=1;resizeParentMax=0;resizeLast=0;collapsible=1;marginBottom=0;" vertex="1" parent="1">
          <mxGeometry x="300" y="470" width="140" height="31" as="geometry"/>
        </mxCell>
        <mxCell id="OiDeRyfbak5E41qK3tfj-29" value="" style="endArrow=block;dashed=1;endFill=0;endSize=12;html=1;exitX=0.737;exitY=-0.012;exitDx=0;exitDy=0;entryX=0.453;entryY=1.004;entryDx=0;entryDy=0;entryPerimeter=0;exitPerimeter=0;" edge="1" parent="1">
          <mxGeometry width="160" relative="1" as="geometry">
            <mxPoint x="84.8" y="589.1999999999999" as="sourcePoint"/>
            <mxPoint x="85.12000000000005" y="540" as="targetPoint"/>
          </mxGeometry>
        </mxCell>
      </root>
    </mxGraphModel>
  </diagram>
</mxfile>
